<mxfile host="app.diagrams.net" modified="2020-11-20T08:36:28.285Z" agent="5.0 (Windows NT 10.0; Win64; x64) AppleWebKit/537.36 (KHTML, like Gecko) Chrome/86.0.4240.198 Safari/537.36" etag="Q9CFvJiBnysD-L6qopz2" version="13.9.9" type="github">
  <diagram id="YpgpBB0IQ0bUhZqTtNrN" name="Page-1">
    <mxGraphModel dx="1673" dy="896" grid="1" gridSize="10" guides="1" tooltips="1" connect="1" arrows="1" fold="1" page="1" pageScale="1" pageWidth="827" pageHeight="1169" math="0" shadow="0">
      <root>
        <mxCell id="0" />
        <mxCell id="1" parent="0" />
        <mxCell id="PEl0hQxnp5PITzYerzf_-1" value="&lt;font style=&quot;font-size: 16px&quot;&gt;桥接模式： 不同的手机有不同的颜色，将颜色作为桥接选项&lt;/font&gt;" style="text;html=1;strokeColor=none;fillColor=none;align=center;verticalAlign=middle;whiteSpace=wrap;rounded=0;" vertex="1" parent="1">
          <mxGeometry x="40" y="30" width="450" height="70" as="geometry" />
        </mxCell>
        <mxCell id="PEl0hQxnp5PITzYerzf_-6" style="edgeStyle=orthogonalEdgeStyle;rounded=1;orthogonalLoop=1;jettySize=auto;html=1;" edge="1" parent="1" source="PEl0hQxnp5PITzYerzf_-2" target="PEl0hQxnp5PITzYerzf_-3">
          <mxGeometry relative="1" as="geometry" />
        </mxCell>
        <mxCell id="PEl0hQxnp5PITzYerzf_-7" style="edgeStyle=orthogonalEdgeStyle;rounded=1;orthogonalLoop=1;jettySize=auto;html=1;entryX=0.5;entryY=0;entryDx=0;entryDy=0;" edge="1" parent="1" source="PEl0hQxnp5PITzYerzf_-2" target="PEl0hQxnp5PITzYerzf_-5">
          <mxGeometry relative="1" as="geometry" />
        </mxCell>
        <mxCell id="PEl0hQxnp5PITzYerzf_-8" style="edgeStyle=orthogonalEdgeStyle;rounded=1;orthogonalLoop=1;jettySize=auto;html=1;exitX=0.5;exitY=1;exitDx=0;exitDy=0;entryX=0.5;entryY=0;entryDx=0;entryDy=0;" edge="1" parent="1" source="PEl0hQxnp5PITzYerzf_-2" target="PEl0hQxnp5PITzYerzf_-4">
          <mxGeometry relative="1" as="geometry" />
        </mxCell>
        <mxCell id="PEl0hQxnp5PITzYerzf_-2" value="&lt;font style=&quot;font-size: 16px&quot;&gt;Color&lt;br&gt;&lt;br&gt;void useColor()&lt;br&gt;&lt;/font&gt;" style="rounded=0;whiteSpace=wrap;html=1;fillColor=#d5e8d4;strokeColor=#82b366;" vertex="1" parent="1">
          <mxGeometry x="310" y="160" width="200" height="90" as="geometry" />
        </mxCell>
        <mxCell id="PEl0hQxnp5PITzYerzf_-3" value="&lt;font style=&quot;font-size: 18px&quot;&gt;BlueColor&lt;/font&gt;" style="rounded=0;whiteSpace=wrap;html=1;fillColor=#dae8fc;strokeColor=#6c8ebf;" vertex="1" parent="1">
          <mxGeometry x="80" y="350" width="180" height="70" as="geometry" />
        </mxCell>
        <mxCell id="PEl0hQxnp5PITzYerzf_-4" value="&lt;font style=&quot;font-size: 18px&quot;&gt;RedColor&lt;/font&gt;" style="rounded=0;whiteSpace=wrap;html=1;fillColor=#dae8fc;strokeColor=#6c8ebf;" vertex="1" parent="1">
          <mxGeometry x="320" y="350" width="180" height="70" as="geometry" />
        </mxCell>
        <mxCell id="PEl0hQxnp5PITzYerzf_-5" value="&lt;font style=&quot;font-size: 18px&quot;&gt;YellowColor&lt;/font&gt;" style="rounded=0;whiteSpace=wrap;html=1;fillColor=#dae8fc;strokeColor=#6c8ebf;" vertex="1" parent="1">
          <mxGeometry x="540" y="350" width="180" height="70" as="geometry" />
        </mxCell>
        <mxCell id="PEl0hQxnp5PITzYerzf_-12" style="edgeStyle=orthogonalEdgeStyle;rounded=1;orthogonalLoop=1;jettySize=auto;html=1;entryX=0.5;entryY=0;entryDx=0;entryDy=0;" edge="1" parent="1" source="PEl0hQxnp5PITzYerzf_-9" target="PEl0hQxnp5PITzYerzf_-10">
          <mxGeometry relative="1" as="geometry" />
        </mxCell>
        <mxCell id="PEl0hQxnp5PITzYerzf_-13" style="edgeStyle=orthogonalEdgeStyle;rounded=1;orthogonalLoop=1;jettySize=auto;html=1;" edge="1" parent="1" source="PEl0hQxnp5PITzYerzf_-9" target="PEl0hQxnp5PITzYerzf_-11">
          <mxGeometry relative="1" as="geometry" />
        </mxCell>
        <mxCell id="PEl0hQxnp5PITzYerzf_-9" value="abstract&amp;nbsp; Phone&lt;br&gt;&lt;br&gt;public Color color&lt;br&gt;&lt;br&gt;abstract public&amp;nbsp; void run();&lt;br&gt;&lt;br&gt;public void setColor(Color color){&lt;br&gt;this.color = color;&lt;br&gt;&lt;div style=&quot;text-align: left&quot;&gt;&lt;span&gt;&amp;nbsp; &amp;nbsp;}&amp;nbsp;&lt;/span&gt;&lt;/div&gt;" style="rounded=0;whiteSpace=wrap;html=1;fillColor=#e1d5e7;strokeColor=#9673a6;" vertex="1" parent="1">
          <mxGeometry x="314" y="550" width="200" height="150" as="geometry" />
        </mxCell>
        <mxCell id="PEl0hQxnp5PITzYerzf_-10" value="ApplePhone&lt;br&gt;&lt;br&gt;public ApplePhone(Color color){&lt;br&gt;super.setColor(color);&lt;br&gt;}" style="rounded=0;whiteSpace=wrap;html=1;fillColor=#dae8fc;strokeColor=#6c8ebf;" vertex="1" parent="1">
          <mxGeometry x="100" y="740" width="190" height="90" as="geometry" />
        </mxCell>
        <mxCell id="PEl0hQxnp5PITzYerzf_-11" value="HwPhone&lt;br&gt;&lt;br&gt;public ApplePhone(Color color){&lt;br&gt;super.setColor(color);&lt;br&gt;}" style="rounded=0;whiteSpace=wrap;html=1;fillColor=#dae8fc;strokeColor=#6c8ebf;" vertex="1" parent="1">
          <mxGeometry x="540" y="740" width="190" height="90" as="geometry" />
        </mxCell>
      </root>
    </mxGraphModel>
  </diagram>
</mxfile>
